<?xml version="1.0" standalone="no"?>
<!DOCTYPE svg PUBLIC "-//W3C//DTD SVG 20010904//EN"
 "http://www.w3.org/TR/2001/REC-SVG-20010904/DTD/svg10.dtd">
<svg version="1.0" xmlns="http://www.w3.org/2000/svg"
 width="268.000000pt" height="268.000000pt" viewBox="0 0 268.000000 268.000000"
 preserveAspectRatio="xMidYMid meet">
<metadata>
Created by potrace 1.11, written by Peter Selinger 2001-2013
</metadata>
<g transform="translate(0.000000,268.000000) scale(0.100000,-0.100000)"
fill="#000000" stroke="none">
<path d="M1220 2233 c-224 -35 -440 -157 -572 -320 -141 -176 -199 -335 -203
-558 -2 -109 1 -145 21 -224 81 -322 311 -562 631 -657 74 -22 109 -26 223
-27 149 -2 183 2 285 34 285 87 513 320 601 614 22 76 27 111 28 220 1 177
-14 262 -70 383 -13 29 -24 55 -24 58 0 17 -105 159 -155 210 -118 119 -240
192 -405 241 -67 20 -111 25 -210 28 -69 1 -136 1 -150 -2z"/>
</g>
</svg>
