<?xml version="1.0" standalone="no"?>
<!DOCTYPE svg PUBLIC "-//W3C//DTD SVG 20010904//EN"
 "http://www.w3.org/TR/2001/REC-SVG-20010904/DTD/svg10.dtd">
<svg version="1.0" xmlns="http://www.w3.org/2000/svg"
 width="830.000000pt" height="830.000000pt" viewBox="0 0 830.000000 830.000000"
 preserveAspectRatio="xMidYMid meet">
<metadata>
Created by potrace 1.11, written by Peter Selinger 2001-2013
</metadata>
<g transform="translate(0.000000,830.000000) scale(0.100000,-0.100000)"
fill="#000000" stroke="none">
<path d="M3909 8146 c-2 -2 -44 -7 -94 -11 -49 -3 -101 -8 -115 -10 -14 -1
-50 -6 -80 -9 -30 -4 -77 -11 -105 -16 -27 -5 -66 -12 -85 -15 -63 -11 -224
-45 -275 -59 -408 -114 -659 -217 -990 -405 -208 -118 -439 -280 -618 -432
-66 -57 -375 -364 -417 -414 -14 -17 -46 -55 -71 -85 -223 -267 -447 -637
-588 -970 -18 -41 -36 -84 -41 -95 -58 -134 -169 -502 -196 -655 -4 -25 -8
-47 -9 -50 -1 -3 -5 -25 -9 -50 -5 -25 -10 -52 -11 -60 -3 -17 -24 -157 -30
-205 -27 -209 -27 -689 0 -900 2 -16 7 -59 10 -95 4 -36 8 -67 10 -70 2 -3 6
-26 10 -50 3 -25 8 -52 10 -60 2 -8 7 -35 10 -60 4 -24 9 -48 11 -52 2 -3 9
-28 14 -55 19 -88 21 -98 37 -153 54 -191 140 -437 195 -560 52 -116 126 -263
170 -339 26 -46 48 -86 48 -88 0 -20 291 -435 359 -513 12 -14 43 -50 69 -80
74 -89 339 -350 442 -436 410 -345 918 -624 1390 -763 41 -13 89 -27 105 -32
17 -5 33 -9 37 -9 4 -1 29 -7 55 -15 60 -18 263 -60 363 -75 41 -6 85 -13 98
-15 13 -2 51 -7 85 -10 34 -3 100 -10 147 -14 86 -9 604 -7 650 3 14 3 52 7
85 11 153 14 224 26 425 69 403 86 766 228 1165 455 116 66 381 249 479 331
140 116 193 165 326 299 182 183 194 197 364 411 123 156 315 472 416 685 179
378 316 841 355 1199 3 22 7 55 9 71 28 199 28 743 2 905 -3 14 -7 48 -11 75
-3 28 -10 75 -15 105 -5 30 -12 71 -15 90 -18 104 -60 281 -95 400 -48 160
-45 150 -54 175 -5 11 -12 31 -16 45 -23 66 -84 219 -100 250 -10 19 -19 40
-20 45 -2 14 -113 238 -151 305 -91 162 -208 341 -303 464 -34 43 -70 91 -81
106 -69 94 -373 409 -501 519 -378 323 -831 586 -1289 747 -71 25 -280 88
-325 98 -14 3 -63 15 -110 26 -95 22 -100 23 -225 44 -110 18 -144 23 -215 31
-30 3 -71 8 -90 11 -41 6 -595 15 -601 10z"/>
</g>
</svg>
